<?xml version="1.0" encoding="utf-8"?>
<svg version="1.1" xmlns="http://www.w3.org/2000/svg" xmlns:xlink="http://www.w3.org/1999/xlink" x="0px" y="0px"
	 viewBox="0 0 1739.5 1739.5" enable-background="new 0 0 1739.5 1739.5" xml:space="preserve">
<g id="_x31_0">
	<g id="color_1_">
		<path id="color_3_" fill="#FFD700" d="M707,363.8l76.1-14.2l276.2,16.8l100.7,61.9l67.1,94.2l40,85.2l27.1,94.2l15.5,83.9
			l2.6,69.7l-2.6,89l-10.3,71l-20.6,67.1l-34.8,95.5c0,0-41.3,72.3-41.3,76.1c0,3.9-67.1,69.7-67.1,69.7l-85.2,54.2l-129,10.3
			l-116.1,7.7l-76.1-11.6l-105.8-55.5l-95.5-111l-68.4-135.5l-29.7-136.8l-3.9-116.1l9-105.8l28.4-95.5l45.2-86.5l56.8-76.1
			l76.1-68.4L707,363.8z"/>
	</g>
	<path id="line_1_" d="M894.5,579.7h-151c-4.3,0-7.7,3.5-7.7,7.7v566.2c0,4.3,3.5,7.7,7.7,7.7h151c4.3,0,7.7-3.5,7.7-7.7V587.5
		C902.2,583.2,898.8,579.7,894.5,579.7z M873.2,1120.7c0,4.4-3.4,6.8-5.8,6.8h-49.2c-2.1,0.2-6-1.9-6-6.8V624.3c0-4,2.7-6.8,5.5-6.8
		h49.5c3.2,0,6,3,6,6.8V1120.7z M990,574.4c-54.4-81.1-127.3-126.9-203.6-126.9c-70.2,0-140.9,47-193.1,127
		c-52.6,80.7-81,185.6-81,295.5c0,109.7,29.1,214.7,82,295.5c52.3,80,122.3,124.8,192.1,124.8c76.3,0,148.3-43.6,202.7-124.7
		c53.5-79.7,83-184.7,83-295.7C1072.1,759.2,1043.5,654.1,990,574.4z M797.2,1249.9c-77.4,0-225.5-125.7-225.5-379.8
		c0-215.3,122.1-386.7,225.5-386.7c138.1,0,243.9,175.1,243.9,386.7C1041.1,1081.8,935.3,1249.9,797.2,1249.9z M1040.1,344.9
		L1040.1,344.9l-251.8-17.1c-95.2,0.3-192.2,62.2-265.2,164.1c-74.7,104.4-115.3,239.3-115.3,380c0,140.3,41.5,275.3,116.9,380.1
		c73.4,102,169.5,159.5,263.8,159.7l236.1-14.4c105.6,0,307-164.7,307-525.1C1331.7,512.9,1137.3,344.9,1040.1,344.9z M788.9,1373.3
		c-161.7,0-342.3-213.8-342.3-501.4c0-132.7,38.6-259.7,108.7-357.6c65.7-91.7,150.6-145.5,233.1-145.8v0h4.2
		c86.5,1.5,175.7,52,244.4,143.8c73.9,98.6,114.6,226.4,114.6,359.6c0,134.2-40.4,262-112.8,359.7
		c-68.8,92.8-159.6,141.4-249.5,141.7H788.9z M1022.6,1358.7c-2.5,0-88,7.6-93.5,7.6c50.4-27.5,97.9-65.1,134.9-116.5
		c75.5-104.9,118.6-237.2,118.6-378c0-139.9-42.7-273.8-120.2-378.1c-44.1-59.3-89.1-95.3-147.5-124.4l104.7,8.3
		c80.7,0,270.8,161.5,270.8,494.4C1290.3,1188.6,1097.1,1358.7,1022.6,1358.7z"/>
</g>
</svg>
